<svg width="24" height="24" fill="none" xmlns="http://www.w3.org/2000/svg"><path d="M6.139 2.516l3.24 4.419a.98.98 0 01-.247 1.394c-1.084.723-1.525 2.072-.789 3.147a16.132 16.132 0 001.91 2.271 16.133 16.133 0 002.27 1.91c1.076.736 2.425.295 3.148-.79a.98.98 0 011.394-.246l4.419 3.24a1.264 1.264 0 01-.047 2.07L19.6 21.157c-1.3.868-2.884 1.172-4.248.407-1.564-.877-3.951-2.557-7.154-5.76-3.204-3.204-4.884-5.59-5.761-7.155-.765-1.364-.46-2.947.407-4.248l1.224-1.837a1.264 1.264 0 012.07-.047z" stroke="#fff" stroke-width="1.5"/></svg>