<svg width="24" height="24" viewBox="0 0 24 24" fill="none" xmlns="http://www.w3.org/2000/svg">
<path d="M17.657 16.2985L13.414 20.4303C13.039 20.7951 12.5306 21 12.0005 21C11.4704 21 10.962 20.7951 10.587 20.4303L6.343 16.2985C5.22422 15.2091 4.46234 13.821 4.15369 12.3098C3.84504 10.7987 4.00349 9.23237 4.60901 7.80892C5.21452 6.38547 6.2399 5.16884 7.55548 4.31286C8.87107 3.45688 10.4178 3 12 3C13.5822 3 15.1289 3.45688 16.4445 4.31286C17.7601 5.16884 18.7855 6.38547 19.391 7.80892C19.9965 9.23237 20.155 10.7987 19.8463 12.3098C19.5377 13.821 18.7758 15.2091 17.657 16.2985Z" stroke="#00965E" stroke-width="2" stroke-linecap="round" stroke-linejoin="round"/>
</svg>
