<svg width="24" height="24" viewBox="0 0 24 24" fill="none" xmlns="http://www.w3.org/2000/svg">
<path d="M13 3C13 3 15.2 3.2 18 6C20.8 8.8 21 11 21 11" stroke="#00965E" stroke-width="2" stroke-linecap="round"/>
<path d="M13.207 6.53564C13.207 6.53564 14.197 6.81849 15.6819 8.30341C17.1668 9.78834 17.4497 10.7783 17.4497 10.7783" stroke="#00965E" stroke-width="2" stroke-linecap="round"/>
<path d="M9.0376 6.31617L9.6866 7.4791C10.2723 8.52858 10.0372 9.90532 9.1147 10.8278C9.1147 10.8278 7.99588 11.9468 10.0245 13.9755C12.0525 16.0035 13.1722 14.8853 13.1722 14.8853C14.0947 13.9628 15.4714 13.7277 16.5209 14.3134L17.6838 14.9624C19.2686 15.8468 19.4557 18.0692 18.0628 19.4622C17.2258 20.2992 16.2004 20.9505 15.0669 20.9934C13.1588 21.0658 9.9183 20.5829 6.6677 17.3323C3.41713 14.0817 2.93421 10.8412 3.00655 8.93309C3.04952 7.7996 3.7008 6.77423 4.53781 5.93723C5.93076 4.54428 8.15317 4.73144 9.0376 6.31617Z" stroke="#00965E" stroke-width="2" stroke-linecap="round"/>
</svg>
